{"glyphs":{"0":{"ha":917,"x_min":0,"x_max":0,"o":"m 458 -14 b 56 521 218 -14 56 218 b 458 1056 56 824 232 1056 b 861 521 685 1056 861 824 b 458 -14 861 218 699 -14 m 458 1032 b 299 521 328 1032 299 808 b 458 10 299 233 314 10 b 618 521 603 10 618 233 b 458 1032 618 808 596 1032 "},"1":{"ha":688,"x_min":0,"x_max":0,"o":"m 250 28 l 250 1014 l 93 1014 l 93 1042 l 465 1042 l 465 28 l 618 28 l 618 0 l 69 0 l 69 28 "},"2":{"ha":833,"x_min":0,"x_max":0,"o":"m 56 0 l 56 139 l 347 378 b 533 736 461 472 533 585 b 324 992 533 908 453 992 b 104 778 200 992 110 899 b 207 850 119 817 163 850 b 331 731 275 850 331 800 b 194 603 331 654 264 603 b 69 763 125 603 69 656 b 417 1056 69 925 199 1056 b 756 792 633 1056 756 938 b 532 478 756 632 635 556 l 207 208 l 757 208 l 757 313 l 785 313 l 785 0 "},"3":{"ha":793,"x_min":0,"x_max":0,"o":"m 738 285 b 356 -14 738 97 565 -14 b 35 224 138 -14 35 110 b 156 353 35 301 86 353 b 267 236 218 353 267 307 b 149 125 267 171 210 125 b 97 138 119 125 103 136 b 314 28 125 85 196 28 b 514 285 465 28 514 133 b 275 550 514 408 475 550 l 275 576 b 472 821 461 576 472 725 b 328 1014 472 931 424 1014 b 167 946 247 1014 194 976 b 197 950 172 947 182 950 b 304 842 251 950 304 908 b 190 726 304 769 246 726 b 76 840 128 726 76 765 b 363 1054 76 961 221 1054 b 696 814 544 1054 696 967 b 399 564 696 694 632 590 b 738 285 651 536 738 424 "},"4":{"ha":889,"x_min":0,"x_max":0,"o":"m 826 0 l 375 0 l 375 28 l 507 28 l 507 285 l 49 285 l 563 1042 l 722 1042 l 722 313 l 875 313 l 875 285 l 722 285 l 722 28 l 826 28 m 507 313 l 507 910 l 101 313 "},"5":{"ha":743,"x_min":0,"x_max":0,"o":"m 104 89 b 265 18 118 64 183 18 b 472 308 417 18 472 150 b 299 590 472 494 415 590 b 117 496 208 590 144 542 l 79 496 l 79 1042 l 625 1042 l 625 1118 l 653 1118 l 653 833 l 107 833 l 107 521 b 350 632 144 578 222 632 b 701 308 560 632 701 517 b 300 -14 701 121 531 -14 b 14 193 151 -14 14 65 b 135 321 14 271 68 321 b 256 206 197 321 256 282 b 135 83 256 136 196 83 b 104 89 119 83 113 86 "},"6":{"ha":847,"x_min":0,"x_max":0,"o":"m 806 347 b 443 -14 806 139 667 -14 b 69 431 219 -14 69 139 b 701 1056 69 768 336 1056 l 701 1032 b 301 563 469 1032 319 789 b 481 683 326 638 379 683 b 806 347 635 683 806 583 m 576 347 b 436 640 576 568 525 640 b 299 389 356 640 299 569 b 447 14 299 168 338 14 b 576 347 557 14 576 154 "},"7":{"ha":750,"x_min":0,"x_max":0,"o":"m 206 126 b 415 518 206 236 321 368 b 583 826 465 599 519 706 l 83 826 l 83 722 l 56 722 l 56 1042 l 736 1042 b 456 525 736 1042 564 708 b 378 322 386 407 378 376 b 469 115 378 235 469 214 b 339 -14 469 43 421 -14 b 206 126 264 -14 206 24 "},"8":{"ha":833,"x_min":0,"x_max":0,"o":"m 56 264 b 321 535 56 407 142 508 b 83 778 165 560 83 650 b 417 1056 83 931 200 1056 b 750 778 633 1056 750 931 b 513 535 750 650 668 560 b 778 264 692 508 778 407 b 417 -14 778 97 661 -14 b 56 264 172 -14 56 97 m 306 778 b 417 549 306 626 335 549 b 528 778 499 549 528 626 b 417 1028 528 922 499 1028 b 306 778 335 1028 306 922 m 278 264 b 417 14 278 119 314 14 b 556 264 519 14 556 119 b 417 521 556 408 519 521 b 278 264 314 521 278 408 "},"9":{"ha":847,"x_min":0,"x_max":0,"o":"m 778 611 b 146 -14 778 274 511 -14 l 146 10 b 546 479 378 10 528 253 b 367 358 521 404 468 358 b 42 694 213 358 42 458 b 404 1056 42 903 181 1056 b 778 611 628 1056 778 903 m 271 694 b 411 401 271 474 322 401 b 549 653 492 401 549 472 b 400 1028 549 874 510 1028 b 271 694 290 1028 271 888 "}," ":{"ha":347,"x_min":0,"x_max":0,"o":""},"!":{"ha":528,"x_min":0,"x_max":0,"o":"m 386 888 b 276 358 371 685 276 532 l 249 358 b 139 888 249 532 154 685 l 139 914 b 263 1053 139 992 176 1053 b 388 914 349 1053 388 992 b 386 888 388 906 386 897 m 139 111 b 264 236 139 181 194 236 b 389 111 333 236 389 181 b 264 -14 389 42 333 -14 b 139 111 194 -14 139 42 "},"'":{"ha":361,"x_min":0,"x_max":0,"o":"m 290 918 b 194 629 275 814 194 782 l 167 629 b 71 918 167 782 86 814 b 69 943 69 928 69 935 b 181 1056 69 1011 119 1056 b 292 943 242 1056 292 1011 b 290 918 292 935 292 928 "},"\"":{"ha":667,"x_min":0,"x_max":0,"o":"m 596 918 b 500 629 581 814 500 782 l 472 629 b 376 918 472 782 392 814 b 375 943 375 928 375 935 b 486 1056 375 1011 425 1056 b 597 943 547 1056 597 1011 b 596 918 597 935 597 928 m 290 918 b 194 629 275 814 194 782 l 167 629 b 71 918 167 782 86 814 b 69 943 69 928 69 935 b 181 1056 69 1011 119 1056 b 292 943 242 1056 292 1011 b 290 918 292 935 292 928 "},"#":{"ha":875,"x_min":0,"x_max":0,"o":"m 258 368 l 300 694 l 83 694 l 83 722 l 304 722 l 347 1049 l 375 1049 l 332 722 l 582 722 l 625 1047 l 653 1049 l 610 722 l 833 722 l 833 694 l 606 694 l 564 368 l 792 368 l 792 340 l 560 340 l 514 -7 l 486 -8 l 532 340 l 282 340 l 236 -7 l 208 -7 l 254 340 l 42 340 l 42 368 m 536 368 l 579 694 l 328 694 l 286 368 "},"$":{"ha":826,"x_min":0,"x_max":0,"o":"m 663 911 b 465 1021 638 957 565 1008 l 465 661 b 771 306 613 597 771 518 b 465 -18 771 126 654 0 l 465 -111 l 431 -111 l 431 -21 b 417 -21 426 -21 421 -21 b 354 -18 394 -21 374 -19 l 354 -111 l 319 -111 l 319 -14 b 39 215 133 15 39 125 b 160 350 39 293 85 350 b 269 231 215 350 269 306 b 149 126 269 161 203 126 b 97 136 126 126 106 132 b 319 15 139 93 199 35 l 319 447 b 76 771 193 506 76 585 b 319 1044 76 913 188 1013 l 319 1153 l 354 1153 l 354 1051 b 413 1056 374 1054 393 1056 b 431 1056 418 1056 425 1056 l 431 1153 l 465 1153 l 465 1053 b 729 840 603 1035 729 953 b 611 713 729 763 686 713 b 501 822 556 713 501 750 b 608 929 501 889 554 929 b 663 911 624 929 646 922 m 419 1024 b 354 1017 396 1024 374 1021 l 354 710 b 431 675 378 699 404 688 l 431 1024 b 419 1024 426 1024 424 1024 m 222 868 b 319 729 222 804 261 764 l 319 1007 b 222 868 258 982 222 933 m 403 10 b 431 11 413 10 422 10 l 431 400 b 354 432 406 411 381 421 l 354 11 b 403 10 369 10 386 10 m 625 201 b 465 385 625 296 556 343 l 465 15 b 625 201 571 33 625 103 "},"%":{"ha":1417,"x_min":0,"x_max":0,"o":"m 49 750 b 354 1056 49 949 197 1056 b 660 750 511 1056 660 949 b 354 444 660 551 483 444 b 49 750 197 444 49 551 m 1076 1042 l 375 0 l 340 0 l 1042 1042 m 264 750 b 354 472 264 574 286 472 b 444 750 422 472 444 574 b 354 1028 444 926 422 1028 b 264 750 286 1028 264 926 m 757 292 b 1063 597 757 490 906 597 b 1368 292 1219 597 1368 490 b 1063 -14 1368 93 1192 -14 b 757 292 906 -14 757 93 m 972 292 b 1063 14 972 115 994 14 b 1153 292 1131 14 1153 115 b 1063 569 1153 468 1131 569 b 972 292 994 569 972 468 "},"&":{"ha":1196,"x_min":0,"x_max":0,"o":"m 1144 639 l 1144 611 l 1021 611 b 856 217 999 472 944 331 l 981 28 l 1158 28 l 1158 0 l 750 0 l 700 74 b 394 -14 614 19 513 -14 b 56 250 175 -14 56 93 b 375 556 56 419 222 488 l 290 681 b 226 851 254 733 226 803 b 554 1056 226 976 358 1056 b 854 876 738 1056 854 988 b 578 635 854 750 726 701 l 839 242 b 993 611 919 344 976 478 l 811 611 l 811 639 m 563 657 b 647 882 617 700 647 758 b 550 1035 647 961 628 1035 b 446 910 475 1035 446 976 b 547 681 446 854 488 769 m 292 326 b 519 54 292 178 389 54 b 682 101 575 54 631 71 l 389 535 b 292 326 328 492 292 436 "},"(":{"ha":517,"x_min":0,"x_max":0,"o":"m 490 -236 b 90 451 264 -139 90 128 b 490 1111 90 775 264 1014 l 503 1088 b 306 451 365 997 306 718 b 503 -212 306 185 365 -122 "},")":{"ha":517,"x_min":0,"x_max":0,"o":"m 26 1111 b 426 424 253 1014 426 747 b 26 -236 426 100 253 -139 l 14 -212 b 211 424 151 -122 211 157 b 14 1088 211 690 151 997 "},"*":{"ha":882,"x_min":0,"x_max":0,"o":"m 331 385 b 425 649 344 483 417 517 b 244 435 315 575 322 496 b 224 421 236 428 231 425 b 71 461 165 386 101 407 b 113 613 40 514 54 579 b 135 624 119 617 125 621 b 411 674 228 661 293 615 b 136 724 293 732 228 686 b 114 735 126 726 121 731 b 72 888 56 768 42 833 b 225 926 103 940 167 961 b 246 913 232 922 238 919 b 426 699 324 851 317 772 b 332 963 418 831 346 864 b 331 988 331 972 331 979 b 442 1100 331 1056 381 1100 b 553 988 503 1100 553 1056 b 551 963 553 979 553 972 b 457 700 538 865 465 831 b 636 913 565 772 558 851 b 657 926 644 919 650 922 b 810 886 715 961 779 940 b 768 735 840 833 826 768 b 746 724 761 731 756 726 b 469 674 654 686 588 732 b 746 624 588 615 654 661 b 768 613 756 621 761 617 b 810 460 826 579 840 514 b 657 421 779 407 715 386 b 636 435 650 425 644 428 b 456 649 558 496 565 575 b 550 385 464 517 536 483 b 551 360 551 375 551 368 b 440 247 551 292 501 247 b 329 360 379 247 329 292 b 331 385 329 368 329 375 "},"+":{"ha":736,"x_min":0,"x_max":0,"o":"m 354 425 l 83 425 l 83 453 l 354 453 l 354 722 l 382 722 l 382 453 l 653 453 l 653 425 l 382 425 l 382 153 l 354 153 "},",":{"ha":382,"x_min":0,"x_max":0,"o":"m 56 110 b 190 233 56 176 117 233 b 329 47 265 233 329 169 b 53 -217 329 -92 219 -217 l 53 -189 b 300 58 181 -189 290 -112 b 171 -14 269 7 215 -14 b 56 110 104 -14 56 43 "},"-":{"ha":500,"x_min":0,"x_max":0,"o":"m 417 396 l 417 368 l 83 368 l 83 396 "},".":{"ha":361,"x_min":0,"x_max":0,"o":"m 56 111 b 181 236 56 181 111 236 b 306 111 250 236 306 181 b 181 -14 306 42 250 -14 b 56 111 111 -14 56 42 "},"/":{"ha":722,"x_min":0,"x_max":0,"o":"m 667 1083 l 83 -208 l 56 -208 l 639 1083 "},":":{"ha":360,"x_min":0,"x_max":0,"o":"m 56 625 b 181 750 56 694 111 750 b 306 625 250 750 306 694 b 181 500 306 556 250 500 b 56 625 111 500 56 556 m 56 111 b 181 236 56 181 111 236 b 306 111 250 236 306 181 b 181 -14 306 42 250 -14 b 56 111 111 -14 56 42 "},";":{"ha":385,"x_min":0,"x_max":0,"o":"m 57 625 b 182 750 57 694 113 750 b 307 625 251 750 307 694 b 182 500 307 556 251 500 b 57 625 113 500 57 556 m 57 110 b 192 233 57 176 118 233 b 331 47 267 233 331 169 b 54 -217 331 -92 221 -217 l 54 -189 b 301 58 182 -189 292 -112 b 172 -14 271 7 217 -14 b 57 110 106 -14 57 43 "},"<":{"ha":778,"x_min":0,"x_max":0,"o":"m 83 556 l 694 833 l 694 806 l 107 539 l 694 271 l 694 243 l 83 521 "},"=":{"ha":778,"x_min":0,"x_max":0,"o":"m 694 722 l 694 694 l 83 694 l 83 722 m 694 514 l 694 486 l 83 486 l 83 514 "},">":{"ha":778,"x_min":0,"x_max":0,"o":"m 694 521 l 83 243 l 83 271 l 672 539 l 83 806 l 83 833 l 694 556 "},"?":{"ha":813,"x_min":0,"x_max":0,"o":"m 336 499 b 519 778 464 542 519 649 b 356 1019 519 908 493 1019 b 142 890 253 1019 163 943 b 194 903 147 892 165 903 b 311 799 256 903 311 865 b 197 686 311 726 260 686 b 83 807 128 686 83 732 b 397 1056 83 928 214 1056 b 743 778 607 1056 743 944 b 364 481 743 618 594 493 l 364 339 l 336 339 l 336 499 m 249 111 b 374 236 249 181 304 236 b 499 111 443 236 499 181 b 374 -14 499 42 443 -14 b 249 111 304 -14 249 42 "},"@":{"ha":1403,"x_min":0,"x_max":0,"o":"m 1090 -89 b 582 -297 974 -225 808 -297 b 76 293 328 -297 76 -142 b 813 1097 76 728 406 1097 b 1326 557 1164 1097 1326 811 b 939 94 1326 328 1197 94 b 765 240 807 94 765 165 b 554 97 718 151 644 97 b 339 319 431 97 339 175 b 678 735 339 528 492 735 b 822 513 790 735 819 621 l 871 722 l 1079 722 l 979 292 b 1008 138 969 249 929 138 b 1299 557 1158 138 1299 343 b 811 1069 1299 803 1150 1069 b 104 293 424 1069 104 713 b 582 -269 104 -119 340 -269 b 1069 -68 810 -269 944 -204 l 1090 -89 m 800 481 b 731 671 800 539 792 671 b 563 333 656 671 563 506 b 644 163 563 240 583 163 b 800 481 708 163 800 303 "},"A":{"ha":1086,"x_min":0,"x_max":0,"o":"m 138 28 l 503 1063 l 600 1063 l 960 28 l 1067 28 l 1067 0 l 594 0 l 594 28 l 710 28 l 614 326 l 275 326 l 171 28 l 331 28 l 331 0 l 25 0 l 25 28 m 285 354 l 604 354 l 450 828 "},"B":{"ha":968,"x_min":0,"x_max":0,"o":"m 25 0 l 25 28 l 150 28 l 150 1014 l 25 1014 l 25 1042 l 497 1042 b 872 785 728 1042 872 965 b 622 536 872 643 786 563 b 914 278 790 517 914 442 b 525 0 914 76 769 0 m 364 1014 l 364 549 l 469 549 b 650 771 568 549 650 606 b 469 1014 650 936 568 1014 m 364 521 l 364 28 l 483 28 b 678 292 596 28 678 126 b 483 521 678 457 596 521 "}}}
